<?xml version="1.0" encoding="utf-8"?>
<!-- Generator: Adobe Illustrator 21.0.0, SVG Export Plug-In . SVG Version: 6.00 Build 0)  -->
<svg version="1.1" id="Layer_1" xmlns="http://www.w3.org/2000/svg" xmlns:xlink="http://www.w3.org/1999/xlink" x="0px" y="0px"
	 viewBox="0 0 343.9 326.9" style="enable-background:new 0 0 343.9 326.9;" xml:space="preserve">
<style type="text/css">
	.st0{clip-path:url(#SVGID_2_);fill:#eec818;}
</style>
<g>
	<defs>
		<rect id="SVGID_1_" width="343.9" height="326.9"/>
	</defs>
	<clipPath id="SVGID_2_">
		<use xlink:href="#SVGID_1_"  style="overflow:visible;"/>
	</clipPath>
	<path class="st0" d="M13.1,250.5c-17.5,17.5-17.5,45.8,0,63.3c17.5,17.5,45.8,17.5,63.3,0c17.5-17.5,17.5-45.8,0-63.3
		C58.9,233,30.6,233,13.1,250.5 M69.5,278c-2.4,2.4-5.5,3.8-8.6,4.1c3.2,0.4,6.2,1.7,8.6,4.2c5.7,5.7,5.7,14.9,0,20.6
		c-5.7,5.7-14.9,5.7-20.6,0c-2.4-2.4-3.8-5.5-4.1-8.6c-0.4,3.2-1.7,6.2-4.2,8.6c-5.7,5.7-14.9,5.7-20.6,0c-5.7-5.7-5.7-14.9,0-20.6
		c2.4-2.4,5.5-3.8,8.6-4.2c-3.2-0.4-6.2-1.7-8.6-4.1c-5.7-5.7-5.7-14.9,0-20.6c5.7-5.7,14.9-5.7,20.6,0c2.4,2.4,3.8,5.5,4.2,8.6
		c0.4-3.2,1.7-6.2,4.1-8.6c5.7-5.7,14.9-5.7,20.6,0C75.2,263.1,75.2,272.3,69.5,278"/>
	<path class="st0" d="M324.9,11.5L79.6,256.9c-2.6,2.6-4.1-0.2-6.7-2.8s-5.5-4.1-2.8-6.7L315.4,2c2.6-2.6,6.9-2.6,9.5,0
		S327.6,8.9,324.9,11.5"/>
	<path class="st0" d="M290.9,27.7l-39,39c-2.2,2.2-2.2,5.9,0,8.1l43.2,43.2c2.2,2.2,5.9,2.2,8.1,0l16.7-16.7l-24.3-24.3l-9.5,9.5
		c-1.4,1.4-3.7,1.4-5,0c-1.4-1.4-1.4-3.7,0-5l9.5-9.5l-6.8-6.8c-1.6-1.6-1.6-4.1,0-5.7c1.6-1.6,4.1-1.6,5.7,0l6.8,6.8l9.5-9.5
		c1.4-1.4,3.7-1.4,5,0c1.4,1.4,1.4,3.7,0,5l-9.5,9.5l24.3,24.3l16.7-16.7c2.2-2.2,2.2-5.9,0-8.1L299,27.7
		C296.8,25.5,293.2,25.5,290.9,27.7"/>
	<path class="st0" d="M267.5,250.5c-17.5,17.5-17.5,45.8,0,63.3c17.5,17.5,45.8,17.5,63.3,0c17.5-17.5,17.5-45.8,0-63.3
		C313.4,233,285,233,267.5,250.5 M274.4,257.4c5.7-5.7,14.9-5.7,20.6,0c2.4,2.4,3.8,5.5,4.1,8.6c0.4-3.2,1.7-6.2,4.2-8.6
		c5.7-5.7,14.9-5.7,20.6,0c5.7,5.7,5.7,14.9,0,20.6c-2.4,2.4-5.5,3.8-8.6,4.2c3.2,0.4,6.2,1.7,8.6,4.2c5.7,5.7,5.7,14.9,0,20.6
		c-5.7,5.7-14.9,5.7-20.6,0c-2.4-2.4-3.8-5.5-4.2-8.6c-0.4,3.2-1.7,6.2-4.1,8.6c-5.7,5.7-14.9,5.7-20.6,0c-5.7-5.7-5.7-14.9,0-20.6
		c2.4-2.4,5.5-3.8,8.6-4.2c-3.2-0.4-6.2-1.7-8.6-4.2C268.8,272.3,268.8,263.1,274.4,257.4"/>
	<path class="st0" d="M19,11.5l242.5,242.5c2.6,2.6,6.9,2.6,9.5,0c2.6-2.6,2.6-6.9,0-9.5L28.6,2c-2.6-2.6-6.9-2.6-9.5,0
		S16.4,8.9,19,11.5"/>
	<path class="st0" d="M53,27.7l39,39c2.2,2.2,2.2,5.9,0,8.1l-43.2,43.2c-2.2,2.2-5.9,2.2-8.1,0L24,101.4l24.3-24.3l9.5,9.5
		c1.4,1.4,3.7,1.4,5,0c1.4-1.4,1.4-3.7,0-5l-9.5-9.5l6.8-6.8c1.6-1.6,1.6-4.1,0-5.7c-1.6-1.6-4.1-1.6-5.7,0l-6.8,6.8l-9.5-9.5
		c-1.4-1.4-3.7-1.4-5,0c-1.4,1.4-1.4,3.7,0,5l9.5,9.5L18.4,95.8L1.7,79.1c-2.2-2.2-2.2-5.9,0-8.1l43.2-43.2
		C47.1,25.5,50.8,25.5,53,27.7"/>
</g>
</svg>
